<svg width="28" height="29" viewBox="0 0 28 29" fill="none" xmlns="http://www.w3.org/2000/svg">
<path fill-rule="evenodd" clip-rule="evenodd" d="M13.9999 4.76142C16.5764 4.76142 19.0463 5.78661 20.868 7.61019C22.6897 9.43376 23.7126 11.9062 23.7126 14.4856C23.7126 17.0638 22.6896 19.5374 20.868 21.361C19.0464 23.1847 16.5754 24.2086 13.9999 24.2086C11.4234 24.2086 8.95352 23.1846 7.13184 21.361C5.31015 19.5375 4.28726 17.0638 4.28726 14.4845C4.2895 11.9075 5.31359 9.43612 7.13522 7.61249C8.95571 5.79006 11.4247 4.76482 13.9999 4.76142ZM21.1012 2.98614C20.9453 3.21746 21.007 3.53185 21.238 3.68906C21.6934 3.99561 22.1298 4.33024 22.5425 4.6918C22.7534 4.87595 23.0731 4.8535 23.2571 4.64352C23.441 4.43241 23.4186 4.11238 23.2088 3.92824C22.7635 3.53859 22.2947 3.17814 21.8045 2.84691C21.6934 2.77167 21.5566 2.74472 21.4254 2.77055C21.293 2.79638 21.1775 2.87386 21.1023 2.98502L21.1012 2.98614ZM23.7809 5.93373C24.142 6.34696 24.4774 6.78375 24.7837 7.23853C24.9396 7.47097 25.2536 7.53272 25.4858 7.37777C25.5969 7.30254 25.6743 7.18688 25.7001 7.0555C25.7259 6.923 25.6989 6.78601 25.6238 6.67485C25.294 6.18416 24.934 5.7148 24.5447 5.27013C24.4572 5.16571 24.3316 5.1017 24.1959 5.09047C24.0602 5.08037 23.9267 5.12528 23.8246 5.21399C23.7214 5.30382 23.6597 5.43071 23.6519 5.56659C23.644 5.70246 23.6911 5.83608 23.782 5.93603L23.7809 5.93373ZM25.8941 8.0807C26.0141 8.02119 26.1532 8.0122 26.28 8.056C26.4068 8.09867 26.5111 8.19074 26.5705 8.31201C26.8319 8.84315 27.0596 9.3911 27.2514 9.95141C27.3019 10.0805 27.2985 10.2243 27.2402 10.35C27.1818 10.4769 27.0753 10.5735 26.944 10.6184C26.8128 10.6633 26.6692 10.6521 26.5459 10.5881C26.4236 10.5241 26.3316 10.4118 26.2935 10.2782C26.1162 9.7594 25.9054 9.25074 25.6631 8.7589C25.5408 8.50737 25.644 8.20419 25.8953 8.08067L25.8941 8.0807ZM27.9995 14.4855V14.4844C27.9995 13.5771 27.912 12.671 27.7382 11.7794C27.7146 11.6458 27.6383 11.5267 27.5262 11.4493C27.414 11.3718 27.276 11.3426 27.1426 11.3695C27.008 11.3954 26.8913 11.474 26.8162 11.5885C26.7421 11.7019 26.7163 11.8412 26.7455 11.9748C27.4533 15.5738 26.6098 19.305 24.4225 22.248C22.2352 25.191 18.9072 27.0729 15.2606 27.4288C11.613 27.7837 7.98539 26.581 5.27209 24.1164C2.55874 21.6506 1.01077 18.1528 1.01192 14.4843C1.01865 11.1909 2.27156 8.0211 4.51832 5.61364C6.76505 3.2073 9.83952 1.74187 13.1228 1.51277C13.401 1.49368 13.6096 1.25226 13.5917 0.974907C13.5737 0.696432 13.3337 0.485337 13.0555 0.502182C9.46037 0.745849 6.09668 2.36729 3.66479 5.03079C1.23291 7.69429 -0.0782251 11.1933 0.00361297 14.7998C0.0843743 18.4076 1.55265 21.8436 4.10126 24.3948C6.72712 27.0235 10.2874 28.5 14.0002 28.5C17.7142 28.5 21.2743 27.0234 23.9003 24.3948C26.5262 21.7662 28 18.2021 28 14.4841L27.9995 14.4855ZM17.8863 1.53528C17.9301 1.4084 18.0221 1.30285 18.1432 1.24334C18.2632 1.18495 18.4034 1.17597 18.5302 1.21976C19.0899 1.41178 19.6373 1.63859 20.169 1.90023C20.2912 1.95862 20.3843 2.06305 20.4292 2.19105C20.4741 2.31906 20.4651 2.46055 20.4056 2.58182C20.3462 2.7031 20.2396 2.79629 20.1118 2.83896C19.9828 2.88163 19.8426 2.87153 19.7225 2.80977C19.229 2.56723 18.722 2.35613 18.2027 2.17871C17.9379 2.08776 17.7977 1.8003 17.8874 1.5353L17.8863 1.53528ZM14.4069 0.97273C14.4148 0.839108 14.4765 0.713345 14.5774 0.624647C14.6784 0.537062 14.8107 0.492146 14.9442 0.501129C15.5342 0.540431 16.122 0.617909 16.703 0.73132C16.9576 0.780728 17.1337 1.01653 17.1091 1.27591C17.0844 1.53528 16.8668 1.73406 16.6066 1.73518C16.574 1.73518 16.5404 1.73069 16.5078 1.72395C15.9694 1.6184 15.4254 1.54766 14.878 1.5106C14.7434 1.50162 14.6189 1.43986 14.5303 1.3388C14.4417 1.23774 14.3968 1.10524 14.4069 0.971631L14.4069 0.97273ZM13.2516 14.4832C13.2516 14.7628 13.4782 14.9897 13.7575 14.9908H16.5774C16.8522 14.9829 17.0709 14.7583 17.0709 14.4832C17.0709 14.2081 16.8522 13.9836 16.5774 13.9768H14.2634V8.83393V8.83505C14.2667 8.69806 14.2151 8.56556 14.1198 8.46788C14.0244 8.3702 13.8943 8.31517 13.7575 8.31517C13.6218 8.31517 13.4905 8.37019 13.3952 8.46788C13.2998 8.56557 13.2482 8.69807 13.2516 8.83505V14.4832Z" fill="#FFCC00"/>
</svg>
