<svg width="32" height="26" viewBox="0 0 32 26" fill="none" xmlns="http://www.w3.org/2000/svg">
<path d="M23.9613 11.7214V12.5627C23.923 12.7029 23.5612 13.0444 22.4201 13.2885C21.279 13.5326 20.4034 13.9896 20.1083 14.1875C18.7802 15.4907 19.0262 16.8186 20.1083 17.8908C21.1904 18.963 29.9703 18.8805 31.0935 17.8908C32.2166 16.9011 32.1018 15.8866 31.7739 14.9463C31.446 14.0061 30.1835 13.5937 28.6669 13.2885C27.4536 13.0444 27.1339 12.7029 27.1257 12.5627V11.7214C27.6066 11.3777 28.5685 10.2022 28.5685 8.24907C28.5685 5.80771 26.6912 5.15613 25.5107 5.15613C24.3302 5.15613 22.5349 5.88194 22.5349 8.24907C22.5349 10.1428 23.4858 11.353 23.9613 11.7214Z" fill="white" fill-opacity="0.5"/>
<path d="M4.75916 11.7214V12.5627C4.7209 12.7029 4.3591 13.0444 3.21795 13.2885C2.07681 13.5326 1.20128 13.9896 0.906156 14.1875C-0.421899 15.4907 -0.175963 16.8186 0.906156 17.8908C1.98828 18.963 10.7682 18.8805 11.8913 17.8908C13.0144 16.9011 12.8996 15.8866 12.5717 14.9463C12.2438 14.0061 10.9813 13.5937 9.46474 13.2885C8.25145 13.0444 7.93173 12.7029 7.92354 12.5627V11.7214C8.40448 11.3777 9.36636 10.2022 9.36636 8.24907C9.36636 5.80771 7.48905 5.15613 6.30856 5.15613C5.12806 5.15613 3.33273 5.88194 3.33273 8.24907C3.33273 10.1428 4.28368 11.353 4.75916 11.7214Z" fill="white" fill-opacity="0.5"/>
<path d="M13.0319 12.4395V14.0335C12.9585 14.2992 12.2651 14.9461 10.0779 15.4087C7.89071 15.8713 6.21261 16.737 5.64696 17.1121C3.10152 19.5812 3.57289 22.0973 5.64696 24.1288C7.72102 26.1604 24.5492 26.0041 26.7018 24.1288C28.8545 22.2535 28.6345 20.3314 28.006 18.5498C27.3775 16.7683 24.9577 15.9869 22.0509 15.4087C19.7254 14.9461 19.1126 14.2992 19.0969 14.0335V12.4395C20.0187 11.7883 21.8624 9.5609 21.8624 5.86031C21.8624 1.23457 18.2642 0 16.0016 0C13.7389 0 10.2979 1.37522 10.2979 5.86031C10.2979 9.44838 12.1205 11.7415 13.0319 12.4395Z" fill="white"/>
</svg>
