<svg width="29" height="32" viewBox="0 0 29 32" fill="none" xmlns="http://www.w3.org/2000/svg">
<path d="M8.19504 10.7207V12.0944C8.1346 12.3234 7.56297 12.881 5.76001 13.2796C3.95705 13.6783 2.57375 14.4244 2.10747 14.7477C0.00919861 16.8757 0.397767 19.044 2.10747 20.7949C3.81717 22.5458 17.6891 22.4111 19.4635 20.7949C21.238 19.1787 21.0567 17.5221 20.5386 15.9867C20.0205 14.4514 18.0258 13.778 15.6297 13.2796C13.7127 12.881 13.2076 12.3234 13.1946 12.0944V10.7207C13.9545 10.1595 15.4742 8.23984 15.4742 5.05057C15.4742 1.06399 12.5082 0 10.643 0C8.7779 0 5.94135 1.1852 5.94135 5.05057C5.94135 8.14287 7.44381 10.1191 8.19504 10.7207Z" fill="#8392A8"/>
<path d="M19.4339 32.0009C24.7169 32.0009 28.9996 27.718 28.9996 22.4349C28.9996 17.1517 24.7169 12.8689 19.4339 12.8689C14.1509 12.8689 9.86816 17.1517 9.86816 22.4349C9.86816 27.718 14.1509 32.0009 19.4339 32.0009Z" fill="#FF5500"/>
<path d="M14.9268 20.4314H21.4994C22.3721 20.4896 24.1174 21.176 24.1174 23.4562C24.1174 25.7365 22.3721 26.5392 21.4994 26.6556H17.8789M14.9268 20.4314L16.9877 23.4562M14.9268 20.4314L16.9877 17.4647" stroke="white" stroke-linecap="round"/>
</svg>
