<svg width="29" height="33" viewBox="0 0 29 33" fill="none" xmlns="http://www.w3.org/2000/svg">
<path d="M8.66926 11.6723V13.104C8.60627 13.3426 8.01054 13.9237 6.13157 14.3391C4.25261 14.7546 2.81099 15.5321 2.32505 15.869C0.138324 18.0866 0.543273 20.3464 2.32505 22.171C4.10683 23.9956 18.5635 23.8553 20.4128 22.171C22.2621 20.4867 22.0731 18.7603 21.5332 17.1603C20.9932 15.5602 18.9145 14.8584 16.4173 14.3391C14.4195 13.9237 13.8931 13.3426 13.8796 13.104V11.6723C14.6715 11.0875 16.2553 9.08699 16.2553 5.76335C16.2553 1.60881 13.1642 0.5 11.2204 0.5C9.27668 0.5 6.32055 1.73513 6.32055 5.76335C6.32055 8.98593 7.88636 11.0454 8.66926 11.6723Z" fill="white"/>
<path d="M19.7058 32.5006C24.8391 32.5006 29.0004 28.3392 29.0004 23.2059C29.0004 18.0726 24.8391 13.9113 19.7058 13.9113C14.5725 13.9113 10.4111 18.0726 10.4111 23.2059C10.4111 28.3392 14.5725 32.5006 19.7058 32.5006Z" fill="#17DF6D"/>
<path d="M19.5506 26.738C19.3631 26.9255 19.1088 27.0308 18.8436 27.0308H17.9199C17.6547 27.0308 17.4004 26.9255 17.2128 26.7379L14.6964 24.2215C14.3058 23.8309 14.3058 23.1978 14.6964 22.8073L15.0342 22.4694C15.4247 22.0789 16.0579 22.0789 16.4484 22.4694L17.6739 23.6949C18.0644 24.0854 18.6976 24.0854 19.0881 23.6949L22.9548 19.8282C23.3453 19.4377 23.9785 19.4377 24.369 19.8282L24.7083 20.1675C25.0988 20.558 25.0988 21.1913 24.7082 21.5818L19.5506 26.738Z" fill="white"/>
</svg>
